<svg width="16" height="16" viewBox="0 0 16 16" fill="none" xmlns="http://www.w3.org/2000/svg">
<circle cx="8" cy="8" r="8" fill="#5D38BD"/>
<path fill-rule="evenodd" clip-rule="evenodd" d="M11.1485 6.29691C11.0838 6.23211 10.9924 6.19554 10.8966 6.19554H10.896L5.10233 6.20677C5.00621 6.20709 4.91487 6.24398 4.85045 6.30911C4.78569 6.37391 4.75433 6.46084 4.76319 6.54842L5.19674 10.6691C5.20697 11.211 5.72164 11.8096 6.40775 11.8096H9.59667C10.247 11.8096 10.7975 11.3274 10.8077 10.7532L11.2365 6.53591C11.2453 6.44833 11.2133 6.36172 11.1485 6.29691Z" fill="#FED201"/>
<path fill-rule="evenodd" clip-rule="evenodd" d="M8.97109 7.10328V5.77126C8.97109 5.21592 8.54463 4.78123 7.99966 4.78123C7.45469 4.78123 7.02823 5.21592 7.02823 5.77126V7.10328C7.02823 7.26629 6.88349 7.3986 6.70442 7.3986C6.52536 7.3986 6.38062 7.26629 6.38062 7.10328V5.77126C6.38062 4.88499 7.09105 4.19058 7.99966 4.19058C8.90827 4.19058 9.61871 4.88499 9.61871 5.77126V7.10328C9.61871 7.26629 9.47397 7.3986 9.2949 7.3986C9.11583 7.3986 8.97109 7.26629 8.97109 7.10328Z" fill="#FFD300"/>
</svg>
