<svg width="16" height="16" viewBox="0 0 16 16" fill="none" xmlns="http://www.w3.org/2000/svg">
<g clip-path="url(#clip0_1304_9576)">
<path d="M8 16C12.4183 16 16 12.4183 16 8C16 3.58172 12.4183 0 8 0C3.58172 0 0 3.58172 0 8C0 12.4183 3.58172 16 8 16Z" fill="#1D781D"/>
<path d="M5.3335 4.95312H8.60287C9.29148 4.95312 9.80943 5.12194 10.1567 5.45958C10.504 5.79129 10.6777 6.25925 10.6777 6.86344C10.6777 7.71642 10.3184 8.28507 9.59985 8.5694L10.8573 11.0484H9.44716L8.36036 8.77376H6.63586V11.0484H5.3335V4.95312ZM8.48611 7.69865C8.76754 7.69865 8.9831 7.6246 9.1328 7.47652C9.2825 7.32843 9.35734 7.12407 9.35734 6.86344C9.35734 6.60281 9.2825 6.40141 9.1328 6.25925C8.9831 6.11708 8.76754 6.046 8.48611 6.046H6.63586V7.69865H8.48611Z" fill="white"/>
</g>
<defs>
<clipPath id="clip0_1304_9576">
<rect width="16" height="16" fill="white"/>
</clipPath>
</defs>
</svg>
